<svg xmlns="http://www.w3.org/2000/svg" xmlns:xlink="http://www.w3.org/1999/xlink" viewBox="0 0 645.63498 437.30501"><defs><clipPath id="a"><polygon points="168.501 380.651 645.635 257.905 340.052 28.353 168.501 380.651" style="fill:none"/></clipPath><linearGradient id="b" x1="24.42662" y1="639.962" x2="25.42662" y2="639.962" gradientTransform="matrix(0, -352.30007, -352.30007, 0, 225865.72601, 8986.15267)" gradientUnits="userSpaceOnUse"><stop offset="0" stop-color="#004c67"/><stop offset="1" stop-color="#00aae7"/></linearGradient><clipPath id="c"><polygon points="0 202.971 332.571 437.305 313.678 0 0 202.971" style="fill:none"/></clipPath><linearGradient id="d" x1="25.46192" y1="639.83387" x2="26.46192" y2="639.83387" gradientTransform="matrix(0, 437.30503, 437.30503, 0, -279636.28422, -11134.62539)" xlink:href="#b"/><clipPath id="e"><polygon points="473.781 3.841 605.471 326.317 47.667 326.317 473.781 3.841" style="fill:none"/></clipPath><linearGradient id="f" x1="24.3736" y1="639.96856" x2="25.3736" y2="639.96856" gradientTransform="matrix(0, -322.47585, -322.47585, 0, 206700.97712, 8186.21334)" xlink:href="#b"/></defs><title>logo_epita</title><g style="clip-path:url(#a)"><path d="M168.50125,380.65125,645.635,257.905,340.05248,28.35251Z" style="fill:url(#b)"/></g><g style="clip-path:url(#c)"><path d="M0,202.97127,332.57125,437.305,313.67751,0Z" style="fill:url(#d)"/></g><g style="clip-path:url(#e)"><path d="M473.78123,3.84125l131.69,322.47623H47.66749Z" style="fill:url(#f)"/></g><path d="M108.97313,279.92764h68.42625V257.45389H131.54813V217.32014h45.85125v-22.475H131.54813v-40.1325h45.85125V132.23888H108.97313Zm120.48875-31.605a58.57513,58.57513,0,0,0,58.59376-58.59375,58.57736,58.57736,0,0,0-58.59376-58.495h-24.18V279.92764h22.47375v-31.605Zm-1.70625-94.915h1.70625a36.325,36.325,0,0,1,25.685,62.00626,34.99992,34.99992,0,0,1-25.685,10.635h-1.70625Zm83.47626,126.52h22.47375v-150.19H311.23189Zm42.03375-125.215h36.92249v124.4125h22.475V154.71264h36.92123v-23.2775H353.26562v23.2775Zm173.1,105.24875,7.82749,20.46875h24.07876l-59.49627-154.915-59.59752,154.915h24.07876l7.92625-20.46875h55.18253Zm-27.59-71.7375,18.96252,49.2625H479.81191Z" style="fill:#fff"/></svg>