<svg id="Calque_1" data-name="Calque 1" xmlns="http://www.w3.org/2000/svg" viewBox="0 0 399.4 34.05"><defs><style>.cls-1{fill:#00456f;}</style></defs><title>logo-mysg-vect</title><polygon class="cls-1" points="14.36 17.21 2.52 0.88 0 0.88 0 33.21 2.76 33.21 2.76 5.91 14.36 21.9 26.01 5.91 26.01 33.21 28.77 33.21 28.77 0.88 26.25 0.88 14.36 17.21"/><polygon class="cls-1" points="32.53 0.88 43.74 16.59 43.74 33.21 46.5 33.21 46.5 16.27 35.84 0.88 32.53 0.88"/><polygon class="cls-1" points="57.8 0.88 54.5 0.88 46.96 11.5 48.53 13.76 57.8 0.88"/><rect class="cls-1" x="54.37" y="15.34" width="14.25" height="2.41"/><path class="cls-1" d="M96.15,22.14a12.93,12.93,0,0,0-2.73-1.3A24.06,24.06,0,0,0,90.48,20c-1-.2-1.9-.41-2.81-.62a26,26,0,0,1-2.8-.67,9.78,9.78,0,0,1-2.41-1.06A5.34,5.34,0,0,1,80.79,16a4.42,4.42,0,0,1-.63-2.49A4.84,4.84,0,0,1,81,10.62a6.67,6.67,0,0,1,2.62-2.19,8.81,8.81,0,0,1,3.47-.79A11.12,11.12,0,0,1,91,8.28l.47.16.85-2.53-.46-.16a7.86,7.86,0,0,0-1.08-.31l-1-.2A13.76,13.76,0,0,0,86,5a10,10,0,0,0-3.5,1,9.31,9.31,0,0,0-3.67,3.07,7.92,7.92,0,0,0-1.41,4.51,7.26,7.26,0,0,0,3.86,6.63,11.37,11.37,0,0,0,3.12,1.29c1.07.27,2,.48,2.76.62,1.21.23,2.43.51,3.62.83a15.18,15.18,0,0,1,3.15,1.21A6.67,6.67,0,0,1,96.1,26a4.36,4.36,0,0,1,.8,2.69,7.16,7.16,0,0,1-.82,3.58,5.66,5.66,0,0,1-2.18,2.19,7.86,7.86,0,0,1-3.21.93A12.54,12.54,0,0,1,86.84,35a16.57,16.57,0,0,1-7.75-4.27l-.38-.37-1.82,2.09.38.33a22.37,22.37,0,0,0,4.45,3.08,19.63,19.63,0,0,0,4.62,1.74,15,15,0,0,0,3.14.37A12.22,12.22,0,0,0,92,37.73a10.68,10.68,0,0,0,2.39-.81,10.12,10.12,0,0,0,2.1-1.31,7.67,7.67,0,0,0,1.68-1.87,7.52,7.52,0,0,0,1.11-2.4,10.37,10.37,0,0,0,.35-2.68,7.72,7.72,0,0,0-1.28-4.33A7.87,7.87,0,0,0,96.15,22.14Z" transform="translate(-5.1 -4.22)"/><polygon class="cls-1" points="102.7 14.82 117.66 14.82 117.66 12.14 99.94 12.14 99.94 33.21 119.78 33.21 119.78 30.54 102.7 30.54 102.7 14.82"/><rect class="cls-1" x="99.94" y="0.88" width="19.83" height="2.67"/><path class="cls-1" d="M143.88,18.43A6.61,6.61,0,0,0,146.11,17a7,7,0,0,0,1.5-2.23,6.89,6.89,0,0,0,.54-2.7,6.77,6.77,0,0,0-.54-2.69,7,7,0,0,0-3.72-3.69,6.91,6.91,0,0,0-2.71-.55h-11.8V7.77h11.8a4.29,4.29,0,0,1,1.66.34,4.36,4.36,0,0,1,1.38.93,4.57,4.57,0,0,1,.93,1.36,4.06,4.06,0,0,1,.33,1.63,4.18,4.18,0,0,1-.33,1.67,4,4,0,0,1-.92,1.33,4.68,4.68,0,0,1-1.39.92,4.24,4.24,0,0,1-1.66.33h-11.8V37.43h2.76V19h6.1l13.29,18.48H155L141.66,18.94A7,7,0,0,0,143.88,18.43Z" transform="translate(-5.1 -4.22)"/><rect class="cls-1" x="155.61" y="0.88" width="2.76" height="32.33"/><path class="cls-1" d="M228.48,25.84a9.48,9.48,0,0,1-.78,3.79,9.82,9.82,0,0,1-5.2,5.2,9.72,9.72,0,0,1-7.56,0,10,10,0,0,1-3.1-2.1,9.6,9.6,0,0,1-2.08-3.1,9.82,9.82,0,0,1-.75-3.79V5.1h-2.76V25.84a12.47,12.47,0,0,0,.94,4.79,12.08,12.08,0,0,0,2.72,4,11.75,11.75,0,0,0,4,2.71,12.9,12.9,0,0,0,9.57,0,12.08,12.08,0,0,0,4.06-2.7,12.69,12.69,0,0,0,2.7-4,12.3,12.3,0,0,0,1-4.78V5.1h-2.76Z" transform="translate(-5.1 -4.22)"/><path class="cls-1" d="M254.92,22.14a12.85,12.85,0,0,0-2.72-1.3,24.72,24.72,0,0,0-2.95-.81c-1-.2-1.9-.41-2.8-.62a25.57,25.57,0,0,1-2.81-.67,9.78,9.78,0,0,1-2.41-1.06A5.45,5.45,0,0,1,239.56,16a4.5,4.5,0,0,1-.62-2.49,4.77,4.77,0,0,1,.88-2.93,6.57,6.57,0,0,1,2.61-2.19,8.9,8.9,0,0,1,3.48-.79,11.1,11.1,0,0,1,3.85.64l.48.16.84-2.53-.46-.16a7.86,7.86,0,0,0-1.08-.31l-1-.2a13.74,13.74,0,0,0-3.77-.2,10.1,10.1,0,0,0-3.5,1,9.31,9.31,0,0,0-3.67,3.07,7.9,7.9,0,0,0-1.4,4.51A7.25,7.25,0,0,0,240,20.2a11.75,11.75,0,0,0,3.13,1.29c1.06.27,2,.48,2.75.62,1.22.23,2.43.51,3.62.83a15.18,15.18,0,0,1,3.15,1.21A6.57,6.57,0,0,1,254.87,26a4.36,4.36,0,0,1,.8,2.69,7.16,7.16,0,0,1-.81,3.58,5.76,5.76,0,0,1-2.19,2.19,7.86,7.86,0,0,1-3.21.93,12.57,12.57,0,0,1-3.85-.32,16.51,16.51,0,0,1-4-1.54,16.7,16.7,0,0,1-3.72-2.73l-.38-.37-1.82,2.09.38.33a22.37,22.37,0,0,0,4.45,3.08,19.63,19.63,0,0,0,4.62,1.74,15,15,0,0,0,3.14.37,12.22,12.22,0,0,0,2.55-.28,10.68,10.68,0,0,0,2.39-.81,10.46,10.46,0,0,0,2.11-1.31A8.1,8.1,0,0,0,257,33.74a7.5,7.5,0,0,0,1.1-2.4,10.37,10.37,0,0,0,.35-2.68,7.72,7.72,0,0,0-1.28-4.33A7.87,7.87,0,0,0,254.92,22.14Z" transform="translate(-5.1 -4.22)"/><rect class="cls-1" x="256.33" y="15.34" width="14.25" height="2.41"/><path class="cls-1" d="M296.92,19h11.31V30a14.46,14.46,0,0,1-4.72,3.8,13.66,13.66,0,0,1-6.27,1.47,13.52,13.52,0,0,1-5.49-1.13,14.8,14.8,0,0,1-4.52-3,14.11,14.11,0,0,1,0-20,15,15,0,0,1,4.52-3,13.9,13.9,0,0,1,11.18.11l.38.16L305,6l-1.15-.54a16.48,16.48,0,0,0-3.22-1,19,19,0,0,0-6.69,0,16.46,16.46,0,0,0-3.23.93,17,17,0,0,0-5.4,3.63,17.52,17.52,0,0,0-3.63,5.4,17.13,17.13,0,0,0,0,13.14,16.91,16.91,0,0,0,9,9,17.63,17.63,0,0,0,13.14,0,14.56,14.56,0,0,0,4.07-2.37,16.62,16.62,0,0,0,3-3.26l.09-.13V16.28H296.92Z" transform="translate(-5.1 -4.22)"/><polygon class="cls-1" points="322.43 0.88 309.99 33.21 312.95 33.21 323.87 4.75 334.84 33.21 337.8 33.21 325.36 0.88 322.43 0.88"/><polygon class="cls-1" points="357.54 17.21 345.69 0.88 343.18 0.88 343.18 33.21 345.94 33.21 345.94 5.91 357.54 21.9 369.18 5.91 369.18 33.21 371.94 33.21 371.94 0.88 369.43 0.88 357.54 17.21"/><polygon class="cls-1" points="382.33 14.82 397.29 14.82 397.29 12.14 379.57 12.14 379.57 33.21 399.4 33.21 399.4 30.54 382.33 30.54 382.33 14.82"/><rect class="cls-1" x="379.57" y="0.88" width="19.83" height="2.67"/><path class="cls-1" d="M202.41,17.94a16.17,16.17,0,0,0-1-3.24A17,17,0,0,0,199.25,11l-1.94,2.07a14.16,14.16,0,0,1-1.51,18.29,15,15,0,0,1-4.54,3,14.1,14.1,0,0,1-11,0,14.39,14.39,0,0,1-7.57-7.57,14.15,14.15,0,0,1,0-11.08,14.39,14.39,0,0,1,7.57-7.57,14.1,14.1,0,0,1,11,0,14.82,14.82,0,0,1,3.42,2.08l1.93-2.05a17.28,17.28,0,0,0-4.23-2.61,16.54,16.54,0,0,0-3.26-.93,19.56,19.56,0,0,0-6.74,0,16.56,16.56,0,0,0-3.24.93,17.66,17.66,0,0,0-5.43,3.65,17.73,17.73,0,0,0-3.59,5.41,16.69,16.69,0,0,0,0,13.2,15.51,15.51,0,0,0,3.64,5.43,16.92,16.92,0,0,0,24,0,17,17,0,0,0,3.64-5.42,16.45,16.45,0,0,0,1.32-6.6,17.9,17.9,0,0,0-.31-3.37Z" transform="translate(-5.1 -4.22)"/></svg>