<svg width="99" height="99" viewBox="0 0 99 99" fill="none" xmlns="http://www.w3.org/2000/svg">
<g clip-path="url(#clip0_1_166)">
<path d="M28.554 65.8275C27.7975 65.5869 28.044 64.703 28.8168 63.5407C27.9298 64.4089 27.4059 64.5834 27.0693 64.1686C26.9197 63.9092 26.6103 63.8061 26.655 63.3903C26.2846 62.941 25.8087 62.5612 25.6682 61.9207C25.4364 61.471 25.2571 61.0038 25.0431 60.5368C24.8469 60.0523 24.6329 59.5853 24.3657 59.1703C24.2321 58.9628 24.0985 58.7553 24.2817 58.3392C24.1287 58.2184 23.8701 58.1671 23.788 57.9768C23.4928 57.2847 23.2323 56.5926 23.0081 55.8312L22.8778 55.4851C23.0214 55.2769 22.9546 55.1732 22.712 55.1738L22.6469 55.0008C22.7364 54.8793 22.7026 54.8448 22.5463 54.8625C22.253 54.8113 22.1878 54.6383 22.3162 54.3435C22.0279 54.0845 21.8977 53.7384 21.8552 53.3402C21.3574 53.1509 21.2981 52.7354 21.1517 52.3375L20.3853 50.3477C20.1425 49.6383 19.9699 48.894 19.8842 48.1322C19.7978 47.405 19.6259 46.6261 19.5403 45.8642C19.4048 45.0159 19.4974 44.0458 19.6754 43.1275C19.8356 42.2265 20.2054 41.2557 20.6606 40.3366C20.5963 40.1289 20.6875 39.9382 20.9858 39.7815L20.9628 39.2967C20.7325 35.9027 21.213 32.4896 22.3646 29.2653L23.4048 26.3531C24.3715 23.6142 25.8191 21.0473 27.675 18.7911L30.9231 14.834C30.891 14.7302 30.8918 14.6956 30.9941 14.7646L31.2441 14.4522C32.7613 12.5952 34.5152 10.98 36.4712 9.60684L38.8496 7.95546C40.03 7.13846 41.2763 6.45983 42.5556 5.85041C42.4954 5.46954 42.5013 5.22706 42.6036 5.29608C42.501 4.51698 42.7699 4.86267 42.9576 4.98342C42.9473 4.68903 43.0158 4.72349 43.1494 4.93098C43.2913 4.79206 43.4823 4.77425 43.6869 4.91228C43.762 4.66963 44.0445 5.17116 43.9749 4.46126C43.9597 4.3747 44.0104 4.42653 44.0442 4.46108C44.2133 4.63384 44.4001 4.78923 44.5869 4.94463L46.2676 4.21295C46.2541 4.0571 46.2557 3.98782 46.3065 4.03965C46.4686 3.77945 46.5809 3.43278 46.821 3.53609C46.8057 3.44953 46.8065 3.41489 46.8404 3.44944C46.8429 3.34552 46.831 3.1204 46.8656 3.12032C47.0566 3.10251 47.2637 3.13662 47.4538 3.15346L47.6972 3.1182C47.6556 2.68532 47.7241 2.71979 47.7765 2.70233C47.8289 2.68488 47.8974 2.71934 47.9836 2.73644L48.036 2.71899L48.0875 2.73618C48.3298 2.02548 48.7151 1.8513 49.1124 1.90225L49.3194 1.93637L49.5958 1.97029C49.6363 1.72772 49.7369 1.86602 49.8206 1.98704L50.8576 2.08831L50.9092 2.1055L51.0503 2.00122L51.0536 1.86266C51.2912 2.06988 51.5016 1.96543 51.7391 2.17265C54.0055 1.57802 56.3338 1.29498 58.6537 1.35834C58.6747 1.20242 58.6941 1.11577 58.7279 1.15032L58.8496 1.13269C59.0271 0.959049 59.2114 1.21837 59.3938 0.836886C59.5687 0.767161 59.7705 0.299031 59.9354 0.644991L60.0048 0.64482C60.096 0.454074 60.1628 0.557817 60.2296 0.661559C60.3039 0.453545 60.4078 0.453274 60.4713 0.695582L61.2971 0.935944C61.5987 0.64075 61.8329 0.98653 62.127 1.0031C62.542 1.03668 62.9148 1.38211 63.2909 1.58898C63.3483 1.36369 63.4016 1.3116 63.4362 1.31151C63.8334 1.36245 64.2096 1.56932 64.6262 1.53362C64.9212 1.51555 65.2194 1.35892 65.4747 1.54878L65.6438 1.72154L65.7655 1.70391L65.7833 1.68654C65.8601 1.3746 65.8761 1.42652 65.8703 1.669C65.9074 1.56499 65.9252 1.54763 65.9388 1.70347C66.0874 1.28743 66.1348 1.47782 66.1788 1.80677C66.3823 1.26936 66.4973 1.52885 66.6165 1.61514L66.8067 1.63198C66.9722 1.23322 67.0736 1.33687 67.1945 1.35388C67.47 1.42245 67.7295 1.43911 68.0278 1.28248C68.1858 1.19548 68.3244 1.19513 68.4225 1.43735C68.4208 1.50663 68.4023 1.55863 68.4006 1.62791L68.4006 1.62788C68.4369 1.55852 68.4732 1.48916 68.4926 1.40253C68.6404 1.02113 68.7064 1.15951 68.7926 1.17661C69.2574 1.29666 69.719 1.55527 70.2032 1.58867C70.6875 1.62208 71.1515 1.77677 71.673 1.70616C72.0549 1.67055 72.3956 1.91215 72.7202 2.10183C73.0448 2.29151 73.258 2.79322 73.6577 2.74024C73.814 2.72252 73.8395 3.10348 73.9216 3.29378C73.9191 3.39768 73.8811 3.53629 73.8431 3.67491L73.8431 3.675C73.8051 3.81365 73.7502 3.93502 73.7123 4.07367L73.7292 4.09095C73.73 4.05631 73.7308 4.02167 73.7494 3.96967C74.1894 2.96404 74.0604 4.00351 74.3662 3.53512C74.4372 3.46566 74.525 3.41347 74.5031 3.60404C74.527 4.05427 74.7914 3.86309 74.9081 4.0533C74.958 4.13977 75.0999 4.00086 74.9319 4.50354C75.0417 4.26079 75.1304 4.17397 75.2377 4.03515L77.0653 5.12159L77.5099 5.36292C77.7508 5.43158 78.0643 5.3615 78.1937 5.74219L78.2622 5.77667C78.4768 5.49901 78.5436 5.60275 78.5926 5.72386C78.7406 6.05254 78.9815 6.1212 79.2579 6.15514C79.5689 6.18898 79.7879 6.44822 80.0989 6.48206C80.3922 6.53327 80.6306 6.70585 80.8504 6.93044C80.8318 6.98244 80.8124 7.06909 80.7584 7.15582C80.7212 7.25983 80.6857 7.29456 80.6857 7.29456C80.7389 7.24247 80.8099 7.17301 80.8825 7.03427C81.1309 6.79117 81.1412 7.08557 81.2798 7.08521C81.6997 6.91095 81.5614 7.62138 81.1528 8.76549L81.1697 8.78276C81.6595 7.8636 81.9628 7.49913 82.0972 7.67197C82.1809 7.79299 82.3736 7.70591 82.3484 8.03504C82.5876 8.17298 82.8639 8.20691 82.9587 8.58769C83.2268 8.96803 83.4222 9.4871 83.7798 9.74598C83.8821 9.81499 83.9666 9.90137 83.8543 10.248C83.976 10.2304 84.1171 10.1261 84.1847 10.1952C84.4037 10.4545 84.5703 10.7311 84.7538 11.0251L84.8553 11.1288C84.781 11.3368 84.8325 11.354 84.9922 11.1977L85.0429 11.2495C84.9703 11.3883 85.0049 11.3882 85.1114 11.284C85.3057 11.1276 85.3387 11.1968 85.2813 11.4221C85.4731 11.3697 85.5746 11.4733 85.6397 11.6463C85.9743 11.4203 86.0564 11.6106 86.1756 11.6969C86.6194 11.9729 87.1696 12.1447 87.4698 12.6289C87.6203 12.8536 87.8604 12.9569 88.0464 13.147C88.3685 13.4406 88.5131 13.9078 88.5328 14.5312C89.5313 15.5159 90.4587 16.57 91.2975 17.7109L92.5887 19.4915C94.2485 21.7907 95.4858 24.3681 96.2339 27.1199L97.8476 32.7791C98.4679 35.081 98.7739 37.4875 98.7164 39.8777L98.644 42.8914C98.6126 44.9178 98.3217 46.9276 97.7723 48.8861L97.0515 51.4858C96.805 52.3697 97.3025 53.5538 96.9529 54.4033C97.2548 54.8182 96.5474 55.1587 96.4404 56.0076C96.5097 56.0074 96.5072 56.1113 96.345 56.3715C96.4498 56.3366 96.4296 56.4579 96.3916 56.5966C96.5801 56.6827 96.3073 57.2203 95.6095 58.14C95.3772 58.435 95.232 58.7125 94.9295 59.0423C94.6939 59.4759 94.3527 59.979 93.9759 60.5169C93.9574 60.5689 93.8678 60.6903 93.7251 60.8639L93.6896 60.8986C93.3636 61.4883 92.6852 62.3213 92.0424 63.1196L92.0246 63.137C91.9875 63.241 91.827 63.4319 91.6496 63.6056C91.3657 63.8834 91.1511 64.1611 90.9197 64.4214C90.8293 64.5775 90.5446 64.89 90.3663 65.0983C90.3123 65.185 90.2582 65.2718 90.1873 65.3412C89.5993 66.0182 89.5791 66.1394 89.6467 66.2086C89.6991 66.1911 89.8216 66.1388 89.6611 66.3297C89.5006 66.5207 89.3232 66.6943 89.2353 66.7465L89.1305 66.7814L88.8483 66.9899C88.8095 67.1632 88.8095 67.1632 88.491 67.4412L87.8734 67.9103C87.1798 68.6568 86.596 69.1606 86.1178 69.5948C85.5864 70.081 85.0196 70.602 84.4527 71.123L84.4526 71.1231C84.3453 71.2619 84.2212 71.3835 84.0801 71.4878C83.9035 71.6268 83.7438 71.783 83.6019 71.9219L83.5664 71.9567C83.4228 72.1649 83.2454 72.3385 83.035 72.443C82.8407 72.5993 82.6632 72.773 82.4689 72.9293C82.0085 73.3462 81.5489 73.7284 81.0884 74.1452C80.4134 74.8397 79.7207 75.5515 79.2957 75.9336C79.1183 76.1073 78.9949 76.1942 78.7812 76.4372C78.1231 77.149 77.6674 77.1182 77.849 76.7713C77.6494 76.9597 77.4608 77.1223 77.414 77.0988C77.414 77.0988 77.0423 77.4288 77.1335 77.2381C75.7672 77.3831 72.9896 77.6749 72.8091 77.6821C72.734 77.9248 72.6276 78.0289 72.4881 78.0639C71.8417 78.2907 71.1792 78.4656 70.5336 78.6578C69.8888 78.8153 69.2432 79.0074 68.5976 79.1996C67.7077 79.4616 66.8323 79.8449 65.9314 79.8472C65.7235 79.8477 65.5334 79.8309 65.3601 79.8313C65.2207 79.8663 65.099 79.884 64.9596 79.9189L64.9418 79.9363C64.8481 80.231 64.7627 80.1792 64.6807 79.9889C64.6089 80.093 64.5218 80.1106 64.4728 79.9895C64.1856 80.4059 63.9286 80.2853 63.7096 80.0261L63.675 80.0261C63.2121 80.5469 62.8004 80.3748 62.3677 80.3585L61.7778 80.3947C61.4044 80.794 61.0418 80.7429 60.6953 80.7438C59.8806 80.7632 59.0837 80.7653 58.2479 80.9406C57.8127 81.0283 57.3969 81.0293 57.0207 80.8225C57.0047 80.7706 57.0063 80.7013 57.0249 80.6493L56.8475 80.8229C56.5273 81.1701 56.2873 81.0668 56.0455 81.0328C54.6637 80.8631 53.3198 80.5548 51.9388 80.3505C50.5747 80.1635 49.3703 79.8201 48.0586 79.6157C47.0579 79.445 46.2025 78.9969 45.3808 78.5834C44.5761 78.1871 43.9699 77.4612 43.074 77.2557C42.7469 77.1699 42.6183 76.7546 42.4171 76.478C42.4196 76.3741 42.4567 76.2701 42.5294 76.1313C42.5479 76.0793 42.5657 76.062 42.6011 76.0272L42.5327 75.9928C41.8796 76.4967 41.9697 75.6305 41.4086 75.909C41.2515 75.9614 41.1129 75.9617 41.1179 75.7539C41.0264 75.2346 40.4889 75.2533 40.2192 74.9422C40.1524 74.8385 39.9098 74.8391 40.1261 74.4921L40.0922 74.4576C39.9165 74.5619 39.7593 74.6143 39.5844 74.684C38.2894 73.7867 37.0644 72.8546 35.9265 71.905L35.1108 71.2489C34.6501 70.9557 34.1176 70.7665 33.8706 70.2303L33.7336 70.1613C33.3661 70.3182 33.2663 70.1452 33.1665 69.9723C32.9187 69.4707 32.4927 69.1773 32.0311 68.9187C31.518 68.6429 31.1325 68.107 30.5864 67.762C30.0572 67.4343 29.6531 66.9504 29.2836 66.4664C29.303 66.3798 29.3562 66.3277 29.4272 66.2582C29.4981 66.1888 29.5505 66.1713 29.5505 66.1713C29.4643 66.1542 29.3418 66.2065 29.2184 66.2934C28.784 66.3465 28.7755 65.9828 28.554 65.8275Z" fill="#4AE6B6"/>
<path d="M55.015 53.6762L53.7719 51.3925C52.7215 49.4714 51.3425 47.7512 49.6762 46.3151L48.0052 44.8615C45.6416 42.8216 42.7757 41.4057 39.6961 40.7625L36.1899 40.0265C34.9958 39.7817 33.7943 39.6518 32.5674 39.6417C30.8211 39.6201 28.421 39.5855 28.25 39.5184C28.1241 39.4768 27.0231 39.5083 25.77 39.5428C23.4563 39.6168 21.1795 40.1139 19.0467 41.0055L17.5863 41.6227C16.0366 42.2638 14.6017 43.1189 13.2721 44.1529L11.3397 45.6497C10.6927 46.1619 10.073 46.7044 9.4853 47.2949L8.07136 48.728C7.00199 49.8052 6.08204 51.0118 5.32467 52.3255L4.18156 54.2696C4.16842 54.292 4.15528 54.3143 4.14685 54.3542C3.81915 54.6303 3.53185 54.9144 3.27181 55.2288C2.82214 55.7634 2.42698 56.3588 2.20655 56.9638C2.00299 57.489 1.81355 58.0668 1.60528 58.5745C1.38387 59.1044 1.22542 59.6552 1.14305 60.2044L0.917514 61.7897C0.867897 62.1042 0.75533 62.3979 1.01007 62.7062C0.892796 62.9823 0.851612 63.2569 0.94476 63.5332C0.754144 63.6784 0.751397 63.8109 0.905535 63.9578C1.01359 64.0042 1.023 64.0393 0.920635 64.0856L0.900043 64.2229C0.945147 64.2484 0.95456 64.2836 0.981818 64.3139C0.973386 64.3538 0.964953 64.3937 0.95652 64.4336C0.94338 64.456 0.930241 64.4783 0.89455 64.4879L0.853365 64.7625C0.722166 65.3436 0.639798 65.8928 0.579981 66.4548C0.580961 66.5298 0.599787 66.6001 0.636459 66.6655C0.633712 66.798 0.630965 66.9306 0.628219 67.0631C0.531538 67.2019 0.510946 67.3392 0.526045 67.467C0.548791 67.8374 0.517999 68.2221 0.469361 68.6117C0.43857 68.9965 0.403072 69.3637 0.372281 69.7484C0.230689 70.2194 0.401887 70.6441 0.479149 71.0752C0.298926 71.3306 0.462476 71.5127 0.465416 71.7378C0.468356 71.9629 0.648773 72.0652 0.975682 72.0717C0.990781 72.1995 1.00117 72.3096 1.03412 72.4326C0.657593 72.7406 0.514042 73.0614 0.78192 73.3473C0.869382 73.531 0.742696 73.772 1.04431 73.8983C1.15609 73.8871 1.25473 73.8984 1.30454 73.9415C1.30454 73.9415 1.26414 73.9335 1.19276 73.9526C1.12137 73.9717 1.06784 73.9861 1.02371 74.0356C1.08784 74.489 1.17451 74.9553 1.39925 75.3657C1.62869 75.7937 1.68438 76.287 1.91755 76.6576C2.12345 76.9977 2.27583 77.3522 2.27229 77.7673C2.27425 77.9174 2.27621 78.0675 2.57214 78.1012L2.61822 78.2018C2.5837 78.644 2.86099 78.965 3.05376 79.3276L3.34537 80.0589C3.73953 81.1017 4.19665 82.1652 4.71201 83.232C4.86889 83.2464 4.99479 83.288 5.18266 83.2753C4.84457 83.4412 5.02028 83.5259 5.04852 83.6313C5.11069 83.9346 5.46681 84.1216 5.33738 84.4951C5.25854 84.6292 5.34875 84.6804 5.46995 84.7044C5.95374 84.7253 5.4872 85.3398 6.29967 85.1598C6.33065 85.1326 6.3485 85.1278 6.36164 85.1055L6.37105 85.1406C6.28653 85.1821 6.17945 85.2108 6.08179 85.2746C5.98413 85.3384 5.92216 85.3927 5.88274 85.4597C5.91294 85.7152 5.84548 86.0345 6.02688 86.2118C6.5344 86.6782 6.66441 87.3776 7.02544 87.9397C7.41372 88.5323 7.80671 89.1423 8.39032 89.6072C9.16847 90.227 9.80855 90.9027 10.6271 91.5305C11.4325 92.1807 12.1938 92.8803 13.0302 93.5034C13.1749 93.6152 13.2933 93.7717 13.6277 93.6633C13.6991 93.6442 13.7526 93.6298 13.8062 93.6155C13.824 93.6107 13.8156 93.6506 13.7893 93.6953C13.9407 93.9748 14.2113 94.1282 14.5261 94.2321C15.133 94.4271 15.6339 94.7259 16.1704 95.0151C16.3959 95.143 16.5952 95.3155 16.9831 95.1927L17.3796 95.3877C17.6549 95.5587 17.8598 95.8238 18.3501 95.6548L18.3727 95.6675C18.4207 95.9182 18.5439 96.0923 18.8819 95.9264C18.8698 96.0238 18.9327 96.0446 19.0173 96.0031C19.0014 96.158 19.038 96.2235 19.2061 96.0655L19.224 96.0607C19.3273 96.0895 19.4128 96.123 19.5162 96.1518C19.6336 96.2333 19.7511 96.3148 19.8817 96.3739C20.4502 96.711 21.1585 96.7848 21.8322 96.9432C22.3216 97.0568 22.8111 97.1703 23.2696 97.311C23.7591 97.4246 24.2533 97.5558 24.7381 97.6518C24.8414 97.6806 24.9485 97.6519 25.0856 97.521C26.0739 97.7833 27.0943 98.0935 28.1736 98.1243C28.9261 98.1486 29.6805 98.323 30.4657 98.1126C31.2848 98.1002 32.1932 98.0638 33.2969 97.8999C33.6248 97.9815 33.9686 97.9082 34.2794 97.7119C34.6194 97.6961 34.9726 97.658 35.2787 97.4442L35.5953 97.3405C36.5121 97.2643 37.2557 96.6132 38.0999 96.1235C38.1131 96.1011 38.1488 96.0915 38.1619 96.0692C38.3357 96.0038 38.5188 95.9736 38.6747 95.913L42.5676 94.3804C44.5944 93.5926 46.4688 92.4503 48.0931 91.0173L49.8283 89.4981C51.7494 87.8162 53.3029 85.7621 54.3876 83.4571L57.0365 77.8526C58.0339 75.7216 58.6216 73.418 58.7613 71.0839C58.8525 69.4969 58.7285 67.8923 58.4083 66.3403L56.7809 58.6248C56.4671 56.8828 55.85 55.2221 55.015 53.6762Z" fill="#3943D6"/>
<g style="mix-blend-mode:multiply">
<path fill-rule="evenodd" clip-rule="evenodd" d="M28.8161 63.5407C28.0432 64.7031 27.7967 65.587 28.5532 65.8275C28.627 65.8793 28.6772 65.9542 28.7274 66.0291C28.8277 66.179 28.9281 66.3288 29.2176 66.2934C29.341 66.2065 29.4635 66.1543 29.5497 66.1714C29.5497 66.1714 29.4973 66.1888 29.4264 66.2583L29.4264 66.2583C29.3554 66.3277 29.3022 66.3798 29.2828 66.4665C29.6523 66.9505 30.0564 67.4344 30.5856 67.7621C30.8439 67.9253 31.0663 68.1312 31.2833 68.3321C31.525 68.5559 31.76 68.7734 32.0303 68.9188C32.4919 69.1774 32.9179 69.4707 33.1657 69.9723C33.2655 70.1453 33.3653 70.3182 33.7329 70.1614L33.8698 70.2303C34.0621 70.6478 34.4274 70.8549 34.7972 71.0645C34.9024 71.1242 35.0079 71.184 35.11 71.249L35.9257 71.905C37.0636 72.8547 38.2886 73.7868 39.5836 74.6841C39.6168 74.6708 39.6494 74.6582 39.6815 74.6458C39.8189 74.5926 39.9491 74.5422 40.0914 74.4576L40.1253 74.4922C39.9639 74.7511 40.0581 74.8165 40.144 74.8761C40.1732 74.8963 40.2014 74.9159 40.2184 74.9423C40.3205 75.06 40.461 75.1305 40.6011 75.2008C40.8311 75.3163 41.0602 75.4312 41.1171 75.7539C41.1121 75.9618 41.2507 75.9614 41.4078 75.9091C41.6655 75.7812 41.7858 75.8947 41.9039 76.006C42.0429 76.1372 42.1787 76.2653 42.5319 75.9928L42.6003 76.0273C42.5649 76.062 42.5471 76.0794 42.5286 76.1314C42.4559 76.2701 42.4188 76.3741 42.4163 76.478C42.473 76.556 42.524 76.6451 42.5753 76.7346C42.7058 76.9627 42.8384 77.1941 43.0732 77.2557C43.6168 77.3804 44.0537 77.6966 44.493 78.0146C44.7778 78.2207 45.0636 78.4276 45.3801 78.5834C45.4191 78.603 45.4582 78.6228 45.4973 78.6425C46.2832 79.0389 47.1046 79.4532 48.0578 79.6157C48.6604 79.7097 49.2403 79.8329 49.8234 79.9568C50.5098 80.1026 51.2006 80.2494 51.938 80.3505C52.5349 80.4388 53.1247 80.5466 53.7137 80.6541C54.3289 80.7665 54.9432 80.8786 55.5634 80.9683L57.0355 77.8536C58.0329 75.7226 58.6207 73.419 58.7603 71.0849C58.8515 69.4979 58.7276 67.8933 58.4073 66.3412L56.7799 58.6258C56.4662 56.8838 55.849 55.223 55.014 53.6772L53.7709 51.3935C52.7206 49.4723 51.3416 47.7522 49.6753 46.3161L48.0043 44.8625C45.6406 42.8225 42.7747 41.4067 39.6951 40.7635L36.1889 40.0275C34.9948 39.7826 33.7933 39.6528 32.5665 39.6427C30.8201 39.6211 28.42 39.5865 28.249 39.5194C28.126 39.4787 27.0718 39.5078 25.8545 39.5414L25.769 39.5438C24.0138 39.5999 22.2799 39.8996 20.6139 40.4302C20.1798 41.3214 19.8294 42.257 19.6746 43.1275C19.4966 44.0459 19.404 45.016 19.5395 45.8643C19.5841 46.2612 19.6521 46.6627 19.7193 47.0591C19.781 47.4236 19.842 47.7839 19.8834 48.1322C19.9691 48.894 20.1417 49.6383 20.3845 50.3478L21.1509 52.3375C21.1733 52.3984 21.1937 52.4598 21.2139 52.5207C21.3257 52.8574 21.4328 53.18 21.8545 53.3402C21.8969 53.7384 22.0271 54.0845 22.3154 54.3436C22.1871 54.6383 22.2522 54.8113 22.5455 54.8625C22.7018 54.8448 22.7356 54.8794 22.6461 55.0008L22.7112 55.1739C22.9538 55.1732 23.0206 55.277 22.877 55.4852L23.0073 55.8312C23.2315 56.5927 23.492 57.2848 23.7872 57.9768C23.8406 58.1005 23.9685 58.1655 24.0935 58.229C24.1608 58.2632 24.2273 58.297 24.2809 58.3393C24.0977 58.7554 24.2313 58.9629 24.3649 59.1704C24.6321 59.5853 24.8461 60.0524 25.0423 60.5368C25.1208 60.7081 25.1946 60.8794 25.268 61.0498C25.3949 61.3442 25.5206 61.636 25.6674 61.9208C25.7759 62.4153 26.0844 62.7545 26.3899 63.0902C26.48 63.1893 26.5698 63.288 26.6542 63.3904C26.6239 63.6725 26.7566 63.8107 26.8919 63.9515C26.9559 64.0181 27.0205 64.0853 27.0686 64.1687C27.4051 64.5835 27.929 64.409 28.8161 63.5407Z" fill="#2E36AB"/>
</g>
</g>
<defs>
<clipPath id="clip0_1_166">
<rect width="99" height="99" fill="white"/>
</clipPath>
</defs>
</svg>
