<svg xmlns="http://www.w3.org/2000/svg" xmlns:xlink="http://www.w3.org/1999/xlink" viewBox="0 0 274.29 147.16"><defs><style>.cls-1{isolation:isolate;}.cls-2{fill:#231f20;}.cls-3{fill:none;}.cls-4{opacity:0.45;}.cls-5{fill:url(#linear-gradient);}.cls-6{fill:url(#linear-gradient-2);}.cls-7{fill:url(#linear-gradient-3);}.cls-12,.cls-8{mix-blend-mode:multiply;}.cls-9{fill:url(#linear-gradient-4);}.cls-10{fill:url(#linear-gradient-5);}.cls-11{fill:url(#linear-gradient-6);}.cls-12{opacity:0.9;}.cls-13{fill:#df1b2b;}.cls-14{fill:#ed1e2e;}.cls-15{fill:#f7941d;}</style><linearGradient id="linear-gradient" x1="129.86" y1="60.14" x2="115.85" y2="40.88" gradientUnits="userSpaceOnUse"><stop offset="0" stop-color="#fbb040"></stop><stop offset="1" stop-color="#ffdb00"></stop></linearGradient><linearGradient id="linear-gradient-2" x1="144.11" y1="54.68" x2="159.52" y2="63.44" gradientUnits="userSpaceOnUse"><stop offset="0" stop-color="#fbb040"></stop><stop offset="1" stop-color="#f36e4c"></stop></linearGradient><linearGradient id="linear-gradient-3" x1="144.5" y1="4.94" x2="157.11" y2="19.3" xlink:href="#linear-gradient"></linearGradient><linearGradient id="linear-gradient-4" x1="132.7" y1="11.02" x2="120.25" y2="-0.16" xlink:href="#linear-gradient-2"></linearGradient><linearGradient id="linear-gradient-5" x1="116.86" y1="41.77" x2="134.37" y2="26.36" gradientUnits="userSpaceOnUse"><stop offset="0" stop-color="#ef404f"></stop><stop offset="0.65" stop-color="#ef404f"></stop><stop offset="1" stop-color="#f27174"></stop></linearGradient><linearGradient id="linear-gradient-6" x1="123.74" y1="40.91" x2="159.77" y2="37.61" gradientUnits="userSpaceOnUse"><stop offset="0" stop-color="#ed184b"></stop><stop offset="0.65" stop-color="#ed184b"></stop><stop offset="1" stop-color="#f36e4c"></stop></linearGradient></defs><g class="cls-1"><g id="Calque_2" data-name="Calque 2"><g id="LOGOS"><path class="cls-2" d="M41.3,108.91a7.62,7.62,0,0,1-.51,2.83,5.77,5.77,0,0,1-1.55,2.2,7.08,7.08,0,0,1-2.65,1.44,12.71,12.71,0,0,1-3.82.51,10.5,10.5,0,0,1-4.62-1,11,11,0,0,1-3.57-2.71l2.47-2.41a8.62,8.62,0,0,0,2.75,2,7.66,7.66,0,0,0,3.24.74q4.77,0,4.77-3.36a2.7,2.7,0,0,0-.26-1.19,2.77,2.77,0,0,0-.89-1,8.82,8.82,0,0,0-1.61-.84c-.66-.26-1.47-.53-2.44-.82a27.94,27.94,0,0,1-3.19-1.09,8.36,8.36,0,0,1-2.24-1.3,4.6,4.6,0,0,1-1.33-1.79,6.62,6.62,0,0,1-.45-2.6,5.9,5.9,0,0,1,2.21-4.71A7.14,7.14,0,0,1,30,92.57a9.62,9.62,0,0,1,3-.45,10.2,10.2,0,0,1,4.19.82,12.11,12.11,0,0,1,3.35,2.31l-2.43,2.47a7.44,7.44,0,0,0-2.37-1.67,7.72,7.72,0,0,0-3-.54,4.18,4.18,0,0,0-2.94.86,2.66,2.66,0,0,0-.91,2,2.24,2.24,0,0,0,1,2,6.66,6.66,0,0,0,1.55.81c.66.26,1.48.54,2.47.82s2.16.72,3.07,1.09a8.64,8.64,0,0,1,2.32,1.35,5.4,5.4,0,0,1,1.47,1.87A6.22,6.22,0,0,1,41.3,108.91Z"></path><path class="cls-2" d="M55.68,115.52v-23H70.5v3.39H59.11v5.63h6.61v3.39H59.11v7.24H71v3.39Z"></path><path class="cls-2" d="M102.65,99.36a6.94,6.94,0,0,1-1.35,4.48,6.65,6.65,0,0,1-3.72,2.27l4.71,9.41h-4l-4.57-9.11H88.56v9.11H85.14v-23H95.25a9.7,9.7,0,0,1,2.84.41,7,7,0,0,1,2.36,1.26,5.87,5.87,0,0,1,1.61,2.13A7.49,7.49,0,0,1,102.65,99.36Zm-3.49.1A3.49,3.49,0,0,0,98.1,96.7a4.09,4.09,0,0,0-2.84-1h-6.7v7.41h6.7a4.21,4.21,0,0,0,2.82-.91A3.42,3.42,0,0,0,99.16,99.46Z"></path><path class="cls-2" d="M131.91,115.52,130,110.06h-9.22l-1.9,5.46h-3.59l8.29-23h3.66l8.39,23Zm-4.84-13.87c-.13-.42-.28-.87-.46-1.38l-.51-1.51c-.16-.5-.31-1-.46-1.39s-.24-.76-.31-1c-.07.24-.16.57-.3,1l-.42,1.38c-.16.49-.32,1-.48,1.52s-.33,1-.48,1.41l-1.84,5.25h7.11Z"></path><path class="cls-2" d="M166.41,99.69a8.17,8.17,0,0,1-.56,3.13,6.15,6.15,0,0,1-1.58,2.27,6.61,6.61,0,0,1-2.41,1.38,9.65,9.65,0,0,1-3.07.46h-6v8.59h-3.42v-23H159a9.4,9.4,0,0,1,2.95.46,6.62,6.62,0,0,1,2.35,1.37,6.37,6.37,0,0,1,1.55,2.25A8.21,8.21,0,0,1,166.41,99.69Zm-3.52,0a3.87,3.87,0,0,0-1.07-2.93,4,4,0,0,0-2.87-1h-6.17v7.93H159a3.85,3.85,0,0,0,3-1A4.11,4.11,0,0,0,162.89,99.69Z"></path><path class="cls-2" d="M194.09,115.52V105.19H183.46v10.33H180v-23h3.43v9.32h10.63V92.48h3.42v23Z"></path><path class="cls-2" d="M212.92,115.52v-23h3.42v23Z"></path><path class="cls-2" d="M245.93,115.52l-9.18-14.45c-.29-.43-.6-.94-.94-1.51L235,98.24v1c0,.46,0,1,0,1.48s0,1.05,0,1.57v13.21h-3.36v-23h3.52L244,106.54l.51.82.54.94.49.87c.16.26.28.47.37.63v-1c0-.47,0-1,0-1.51s0-1.07,0-1.6V92.48h3.36v23Z"></path><rect class="cls-3" y="87.55" width="274.29" height="58.84"></rect><g class="cls-4"><path class="cls-2" d="M87.89,145.44a1.7,1.7,0,0,1-.49,1.22,1.58,1.58,0,0,1-1.18.5,1.61,1.61,0,0,1-1.18-.5,1.69,1.69,0,0,1-.48-1.22,1.73,1.73,0,0,1,.48-1.23,1.58,1.58,0,0,1,1.18-.51,1.55,1.55,0,0,1,1.18.51A1.74,1.74,0,0,1,87.89,145.44Z"></path><path class="cls-2" d="M97.3,146.92V131.7h2.19v13h7.34v2.24Z"></path><path class="cls-2" d="M115.72,146.92V131.7h9.47v2.24h-7.28v3.72h4.23v2.24h-4.23v4.78h7.6v2.24Z"></path><path class="cls-2" d="M145.29,143.58a5.74,5.74,0,0,1-1.16,1.95,5,5,0,0,1-1.78,1.22,6.08,6.08,0,0,1-2.25.41,5.57,5.57,0,0,1-4.54-2.2,7.51,7.51,0,0,1-1.25-2.48,10.52,10.52,0,0,1-.44-3.17,10.66,10.66,0,0,1,.44-3.17,7.51,7.51,0,0,1,1.25-2.48,5.57,5.57,0,0,1,4.54-2.2,5.76,5.76,0,0,1,3,.73,5.42,5.42,0,0,1,2,2.12l-1.94,1.24a4,4,0,0,0-1.25-1.37,3.77,3.77,0,0,0-4.78,1.06,8.61,8.61,0,0,0,0,8.13,3.35,3.35,0,0,0,3,1.51,3.74,3.74,0,0,0,1.54-.29,3,3,0,0,0,1-.75,3.15,3.15,0,0,0,.59-1.08,4.7,4.7,0,0,0,.19-1.3v-.06h-2.4v-2.2h4.65V141A7.79,7.79,0,0,1,145.29,143.58Z"></path><path class="cls-2" d="M164.46,146.92l-1.24-3.61h-5.9l-1.22,3.61h-2.29l5.3-15.22h2.34l5.37,15.22Zm-3.1-9.17c-.08-.27-.18-.57-.29-.91l-.33-1c-.1-.34-.2-.64-.29-.92s-.16-.51-.2-.67c0,.16-.11.38-.19.67s-.18.58-.27.91-.21.66-.31,1-.21.66-.31.94L158,141.24h4.54Z"></path><path class="cls-2" d="M175.62,146.92V131.7h2.19v13h7.34v2.24Z"></path></g><path class="cls-5" d="M150.21,65.91c-23.06-4.13-42.43-22.74-42.43-22.74l8.12,20s17,4.4,34.31,2.77"></path><path class="cls-6" d="M162,40.36s-12.57,19.56-46.1,22.78c0,0,28.14,7.19,46.1,0"></path><path class="cls-7" d="M126.41.41c20.56,4,37.84,22.2,37.84,22.2L157,3.12S141.17-1.3,126.41.41"></path><g class="cls-8"><path class="cls-9" d="M115.9,25.68S124.1,8.19,157,3.12c0,0-25.11-7-41.12,0"></path></g><path class="cls-10" d="M115.9,3.26l36.26,46.81S123.65,33.38,115.9,25.68Z"></path><g class="cls-8"><path class="cls-11" d="M162,62.78,125.28,15.39s29,17.27,36.72,25Z"></path></g><g class="cls-12"><path class="cls-13" d="M152.15,50.07,162,62.78V40.36s-3,4.61-9.85,9.71"></path></g><g class="cls-12"><path class="cls-14" d="M125.29,15.38,115.9,3.26V25.68s2.31-4.92,9.39-10.3"></path></g><g class="cls-8"><path class="cls-15" d="M115.9,63.14a83.43,83.43,0,0,0,16.47-3.23,69.84,69.84,0,0,0,17.81,6l-.19,0C133.62,67.61,115.9,63.14,115.9,63.14Z"></path></g><g class="cls-8"><path class="cls-15" d="M156.82,3.07C155,2.58,140.39-1.15,126.63.39l-.2,0A59.1,59.1,0,0,1,142.72,6.5,89,89,0,0,1,157,3.12l-.16,0h0"></path></g></g></g></g></svg>